<mxfile host="Electron" agent="Mozilla/5.0 (X11; Linux x86_64) AppleWebKit/537.36 (KHTML, like Gecko) draw.io/24.7.17 Chrome/128.0.6613.36 Electron/32.0.1 Safari/537.36" version="24.7.17">
  <diagram id="l8hXMBHkgcEJcSW0mbfh" name="Page-1">
    <mxGraphModel dx="1434" dy="955" grid="1" gridSize="10" guides="1" tooltips="1" connect="1" arrows="1" fold="1" page="1" pageScale="1" pageWidth="1169" pageHeight="827" math="0" shadow="0">
      <root>
        <mxCell id="0" />
        <mxCell id="1" parent="0" />
        <mxCell id="B1IvITk5gFvRttP3rqFO-21" style="edgeStyle=none;rounded=0;orthogonalLoop=1;jettySize=auto;html=1;sourcePerimeterSpacing=5;endArrow=classic;endFill=1;targetPerimeterSpacing=5;startArrow=none;startFill=0;strokeWidth=3;fillColor=#d5e8d4;strokeColor=#82b366;" edge="1" parent="1" source="W0xqIHwrMlYqFA7ODgHm-1" target="B1IvITk5gFvRttP3rqFO-13">
          <mxGeometry relative="1" as="geometry">
            <mxPoint x="460" y="445" as="sourcePoint" />
            <mxPoint x="460" y="320" as="targetPoint" />
          </mxGeometry>
        </mxCell>
        <mxCell id="B1IvITk5gFvRttP3rqFO-22" style="edgeStyle=none;rounded=0;orthogonalLoop=1;jettySize=auto;html=1;sourcePerimeterSpacing=5;endArrow=classic;endFill=1;targetPerimeterSpacing=5;startArrow=none;startFill=0;strokeWidth=3;fillColor=#d5e8d4;strokeColor=#82b366;" edge="1" parent="1" source="W0xqIHwrMlYqFA7ODgHm-4" target="B1IvITk5gFvRttP3rqFO-10">
          <mxGeometry relative="1" as="geometry">
            <mxPoint x="370" y="445" as="sourcePoint" />
            <mxPoint x="370" y="320" as="targetPoint" />
          </mxGeometry>
        </mxCell>
        <mxCell id="B1IvITk5gFvRttP3rqFO-11" value="" style="rounded=1;whiteSpace=wrap;html=1;" vertex="1" parent="1">
          <mxGeometry x="240" y="280" width="520" height="40" as="geometry" />
        </mxCell>
        <mxCell id="8--HhbSZYtI3ddgJnD71-23" style="edgeStyle=none;rounded=0;orthogonalLoop=1;jettySize=auto;html=1;sourcePerimeterSpacing=5;endArrow=classic;endFill=1;targetPerimeterSpacing=5;startArrow=classic;startFill=1;strokeWidth=2;" parent="1" source="W0xqIHwrMlYqFA7ODgHm-1" target="W0xqIHwrMlYqFA7ODgHm-4" edge="1">
          <mxGeometry relative="1" as="geometry">
            <mxPoint x="641.8342541436464" y="267.69" as="targetPoint" />
          </mxGeometry>
        </mxCell>
        <mxCell id="W0xqIHwrMlYqFA7ODgHm-1" value="" style="image;aspect=fixed;html=1;points=[];align=center;fontSize=12;image=img/lib/azure2/identity/Users.svg;fillOpacity=100;" parent="1" vertex="1">
          <mxGeometry x="408.37" y="430" width="50" height="54.69" as="geometry" />
        </mxCell>
        <mxCell id="W0xqIHwrMlYqFA7ODgHm-4" value="" style="image;aspect=fixed;html=1;points=[];align=center;fontSize=12;image=img/lib/azure2/identity/Users.svg;fillOpacity=100;" parent="1" vertex="1">
          <mxGeometry x="285" y="430" width="50" height="54.69" as="geometry" />
        </mxCell>
        <mxCell id="W0xqIHwrMlYqFA7ODgHm-13" value="" style="image;aspect=fixed;html=1;points=[];align=center;fontSize=12;image=img/lib/azure2/identity/Users.svg;fillOpacity=100;" parent="1" vertex="1">
          <mxGeometry x="535" y="430" width="50" height="54.69" as="geometry" />
        </mxCell>
        <mxCell id="W0xqIHwrMlYqFA7ODgHm-14" style="edgeStyle=none;rounded=0;orthogonalLoop=1;jettySize=auto;html=1;sourcePerimeterSpacing=5;endArrow=classic;endFill=1;targetPerimeterSpacing=5;startArrow=classic;startFill=1;strokeWidth=2;" parent="1" source="W0xqIHwrMlYqFA7ODgHm-13" target="W0xqIHwrMlYqFA7ODgHm-1" edge="1">
          <mxGeometry relative="1" as="geometry">
            <mxPoint x="719" y="235.69" as="sourcePoint" />
            <mxPoint x="480" y="294.69" as="targetPoint" />
          </mxGeometry>
        </mxCell>
        <mxCell id="W0xqIHwrMlYqFA7ODgHm-15" value="" style="image;aspect=fixed;html=1;points=[];align=center;fontSize=12;image=img/lib/azure2/identity/Users.svg;fillOpacity=100;" parent="1" vertex="1">
          <mxGeometry x="661.86" y="430" width="50" height="54.69" as="geometry" />
        </mxCell>
        <mxCell id="W0xqIHwrMlYqFA7ODgHm-16" style="edgeStyle=none;rounded=0;orthogonalLoop=1;jettySize=auto;html=1;sourcePerimeterSpacing=5;endArrow=classic;endFill=1;targetPerimeterSpacing=5;startArrow=classic;startFill=1;strokeWidth=2;" parent="1" source="W0xqIHwrMlYqFA7ODgHm-15" target="W0xqIHwrMlYqFA7ODgHm-13" edge="1">
          <mxGeometry relative="1" as="geometry">
            <mxPoint x="555" y="301.69" as="sourcePoint" />
            <mxPoint x="499" y="257.69" as="targetPoint" />
          </mxGeometry>
        </mxCell>
        <mxCell id="B1IvITk5gFvRttP3rqFO-5" style="edgeStyle=none;rounded=0;orthogonalLoop=1;jettySize=auto;html=1;sourcePerimeterSpacing=5;endArrow=classic;endFill=1;targetPerimeterSpacing=5;startArrow=classic;startFill=1;strokeWidth=2;strokeColor=#000000;dashed=1;dashPattern=1 1;opacity=50;" edge="1" parent="1" source="W0xqIHwrMlYqFA7ODgHm-4">
          <mxGeometry relative="1" as="geometry">
            <mxPoint x="240" y="457.69" as="targetPoint" />
            <mxPoint x="400" y="554.69" as="sourcePoint" />
          </mxGeometry>
        </mxCell>
        <mxCell id="B1IvITk5gFvRttP3rqFO-6" style="edgeStyle=none;rounded=0;orthogonalLoop=1;jettySize=auto;html=1;sourcePerimeterSpacing=5;endArrow=classic;endFill=1;targetPerimeterSpacing=5;startArrow=classic;startFill=1;strokeWidth=2;dashed=1;dashPattern=1 1;strokeColor=#000000;opacity=50;" edge="1" parent="1" source="W0xqIHwrMlYqFA7ODgHm-15">
          <mxGeometry relative="1" as="geometry">
            <mxPoint x="760" y="457.69" as="targetPoint" />
            <mxPoint x="295" y="489.69" as="sourcePoint" />
          </mxGeometry>
        </mxCell>
        <mxCell id="B1IvITk5gFvRttP3rqFO-10" value="" style="image;aspect=fixed;html=1;points=[];align=center;fontSize=12;image=img/lib/azure2/identity/AAD_Licenses.svg;" vertex="1" parent="1">
          <mxGeometry x="290" y="281.31" width="36" height="37.09" as="geometry" />
        </mxCell>
        <mxCell id="B1IvITk5gFvRttP3rqFO-13" value="" style="image;aspect=fixed;html=1;points=[];align=center;fontSize=12;image=img/lib/azure2/identity/AAD_Licenses.svg;" vertex="1" parent="1">
          <mxGeometry x="413.37" y="281.55" width="36" height="37.09" as="geometry" />
        </mxCell>
        <mxCell id="B1IvITk5gFvRttP3rqFO-14" value="" style="image;aspect=fixed;html=1;points=[];align=center;fontSize=12;image=img/lib/azure2/identity/AAD_Licenses.svg;" vertex="1" parent="1">
          <mxGeometry x="540" y="281.54" width="36" height="37.1" as="geometry" />
        </mxCell>
        <mxCell id="B1IvITk5gFvRttP3rqFO-17" value="&lt;span style=&quot;font-size: 14px;&quot;&gt;&lt;b&gt;Schicht für die Vertrauensverifikation der Nutzer&lt;/b&gt;&lt;/span&gt;" style="text;html=1;align=center;verticalAlign=middle;whiteSpace=wrap;rounded=0;" vertex="1" parent="1">
          <mxGeometry x="240" y="260" width="520" height="21.55" as="geometry" />
        </mxCell>
        <mxCell id="B1IvITk5gFvRttP3rqFO-18" style="edgeStyle=none;rounded=0;orthogonalLoop=1;jettySize=auto;html=1;sourcePerimeterSpacing=5;endArrow=classic;endFill=1;targetPerimeterSpacing=5;startArrow=none;startFill=0;strokeWidth=3;fillColor=#d5e8d4;strokeColor=#82b366;" edge="1" parent="1" source="W0xqIHwrMlYqFA7ODgHm-15" target="B1IvITk5gFvRttP3rqFO-34">
          <mxGeometry relative="1" as="geometry">
            <mxPoint x="655" y="495" as="sourcePoint" />
            <mxPoint x="685.9022787342706" y="315" as="targetPoint" />
          </mxGeometry>
        </mxCell>
        <mxCell id="B1IvITk5gFvRttP3rqFO-19" style="edgeStyle=none;rounded=0;orthogonalLoop=1;jettySize=auto;html=1;sourcePerimeterSpacing=5;endArrow=classic;endFill=1;targetPerimeterSpacing=5;startArrow=none;startFill=0;strokeWidth=3;fillColor=#d5e8d4;strokeColor=#82b366;" edge="1" parent="1" source="W0xqIHwrMlYqFA7ODgHm-13" target="B1IvITk5gFvRttP3rqFO-14">
          <mxGeometry relative="1" as="geometry">
            <mxPoint x="571.63" y="441" as="sourcePoint" />
            <mxPoint x="560" y="330" as="targetPoint" />
          </mxGeometry>
        </mxCell>
        <mxCell id="B1IvITk5gFvRttP3rqFO-8" value="" style="rounded=0;whiteSpace=wrap;html=1;opacity=70;" vertex="1" parent="1">
          <mxGeometry x="240" y="360" width="520" height="40" as="geometry" />
        </mxCell>
        <mxCell id="B1IvITk5gFvRttP3rqFO-16" value="" style="image;aspect=fixed;html=1;points=[];align=center;fontSize=12;image=img/lib/azure2/general/Backlog.svg;" vertex="1" parent="1">
          <mxGeometry x="475.6" y="360.08" width="34.8" height="39.84" as="geometry" />
        </mxCell>
        <mxCell id="B1IvITk5gFvRttP3rqFO-20" value="&lt;span style=&quot;font-size: 14px;&quot;&gt;&lt;b&gt;Schicht zur Transaktionsprüfung&lt;/b&gt;&lt;/span&gt;" style="text;html=1;align=center;verticalAlign=middle;whiteSpace=wrap;rounded=0;fillColor=default;opacity=70;" vertex="1" parent="1">
          <mxGeometry x="386" y="340.08" width="230" height="20" as="geometry" />
        </mxCell>
        <mxCell id="B1IvITk5gFvRttP3rqFO-23" style="edgeStyle=none;rounded=0;orthogonalLoop=1;jettySize=auto;html=1;sourcePerimeterSpacing=5;endArrow=classic;endFill=1;targetPerimeterSpacing=5;startArrow=none;startFill=0;strokeWidth=3;fillColor=#f8cecc;strokeColor=#FF3333;" edge="1" parent="1">
          <mxGeometry relative="1" as="geometry">
            <mxPoint x="624" y="450" as="sourcePoint" />
            <mxPoint x="624" y="400" as="targetPoint" />
          </mxGeometry>
        </mxCell>
        <mxCell id="B1IvITk5gFvRttP3rqFO-24" style="edgeStyle=none;rounded=0;orthogonalLoop=1;jettySize=auto;html=1;sourcePerimeterSpacing=5;endArrow=classic;endFill=1;targetPerimeterSpacing=5;startArrow=none;startFill=0;strokeWidth=3;fillColor=#f8cecc;strokeColor=#FF3333;" edge="1" parent="1">
          <mxGeometry relative="1" as="geometry">
            <mxPoint x="500" y="450" as="sourcePoint" />
            <mxPoint x="500" y="400" as="targetPoint" />
          </mxGeometry>
        </mxCell>
        <mxCell id="B1IvITk5gFvRttP3rqFO-25" style="edgeStyle=none;rounded=0;orthogonalLoop=1;jettySize=auto;html=1;sourcePerimeterSpacing=5;endArrow=classic;endFill=1;targetPerimeterSpacing=5;startArrow=none;startFill=0;strokeWidth=3;fillColor=#f8cecc;strokeColor=#FF3333;" edge="1" parent="1">
          <mxGeometry relative="1" as="geometry">
            <mxPoint x="376" y="450" as="sourcePoint" />
            <mxPoint x="376" y="400" as="targetPoint" />
          </mxGeometry>
        </mxCell>
        <mxCell id="B1IvITk5gFvRttP3rqFO-26" value="&lt;font style=&quot;font-size: 11px;&quot;&gt;&lt;b&gt;Transaktion&lt;/b&gt;&lt;/font&gt;" style="text;html=1;align=center;verticalAlign=middle;whiteSpace=wrap;rounded=0;" vertex="1" parent="1">
          <mxGeometry x="593.86" y="460.69" width="60" height="20" as="geometry" />
        </mxCell>
        <mxCell id="B1IvITk5gFvRttP3rqFO-27" value="&lt;font style=&quot;font-size: 11px;&quot;&gt;&lt;b&gt;Transaktion&lt;/b&gt;&lt;/font&gt;" style="text;html=1;align=center;verticalAlign=middle;whiteSpace=wrap;rounded=0;" vertex="1" parent="1">
          <mxGeometry x="468" y="460.69" width="60" height="20" as="geometry" />
        </mxCell>
        <mxCell id="B1IvITk5gFvRttP3rqFO-28" value="&lt;font style=&quot;font-size: 11px;&quot;&gt;&lt;b&gt;Transaktion&lt;/b&gt;&lt;/font&gt;" style="text;html=1;align=center;verticalAlign=middle;whiteSpace=wrap;rounded=0;" vertex="1" parent="1">
          <mxGeometry x="341.6" y="460.69" width="60" height="20" as="geometry" />
        </mxCell>
        <mxCell id="B1IvITk5gFvRttP3rqFO-30" value="" style="image;aspect=fixed;html=1;points=[];align=center;fontSize=12;image=img/lib/azure2/general/Backlog.svg;" vertex="1" parent="1">
          <mxGeometry x="600" y="360.08" width="34.8" height="39.84" as="geometry" />
        </mxCell>
        <mxCell id="B1IvITk5gFvRttP3rqFO-31" value="" style="image;aspect=fixed;html=1;points=[];align=center;fontSize=12;image=img/lib/azure2/general/Backlog.svg;" vertex="1" parent="1">
          <mxGeometry x="351.2" y="360.08" width="34.8" height="39.84" as="geometry" />
        </mxCell>
        <mxCell id="B1IvITk5gFvRttP3rqFO-32" value="" style="image;aspect=fixed;html=1;points=[];align=center;fontSize=12;image=img/lib/azure2/general/Backlog.svg;opacity=60;" vertex="1" parent="1">
          <mxGeometry x="715.86" y="360.08" width="34.8" height="39.84" as="geometry" />
        </mxCell>
        <mxCell id="B1IvITk5gFvRttP3rqFO-33" value="" style="image;aspect=fixed;html=1;points=[];align=center;fontSize=12;image=img/lib/azure2/general/Backlog.svg;opacity=60;" vertex="1" parent="1">
          <mxGeometry x="242.45999999999998" y="360.08" width="34.8" height="39.84" as="geometry" />
        </mxCell>
        <mxCell id="B1IvITk5gFvRttP3rqFO-34" value="" style="image;aspect=fixed;html=1;points=[];align=center;fontSize=12;image=img/lib/azure2/identity/AAD_Licenses.svg;" vertex="1" parent="1">
          <mxGeometry x="667.86" y="281.31" width="36" height="37.1" as="geometry" />
        </mxCell>
        <mxCell id="B1IvITk5gFvRttP3rqFO-36" style="edgeStyle=none;rounded=0;orthogonalLoop=1;jettySize=auto;html=1;sourcePerimeterSpacing=5;endArrow=classic;endFill=1;targetPerimeterSpacing=5;startArrow=none;startFill=0;strokeWidth=3;fillColor=#f8cecc;strokeColor=#FF3333;dashed=1;dashPattern=1 1;opacity=50;" edge="1" parent="1">
          <mxGeometry relative="1" as="geometry">
            <mxPoint x="262.61" y="450" as="sourcePoint" />
            <mxPoint x="262.61" y="400" as="targetPoint" />
          </mxGeometry>
        </mxCell>
        <mxCell id="B1IvITk5gFvRttP3rqFO-37" style="edgeStyle=none;rounded=0;orthogonalLoop=1;jettySize=auto;html=1;sourcePerimeterSpacing=5;endArrow=classic;endFill=1;targetPerimeterSpacing=5;startArrow=none;startFill=0;strokeWidth=3;fillColor=#f8cecc;strokeColor=#FF3333;dashed=1;dashPattern=1 1;opacity=70;" edge="1" parent="1">
          <mxGeometry relative="1" as="geometry">
            <mxPoint x="741.01" y="450" as="sourcePoint" />
            <mxPoint x="741.01" y="400" as="targetPoint" />
          </mxGeometry>
        </mxCell>
      </root>
    </mxGraphModel>
  </diagram>
</mxfile>
